<svg width="32" height="32" viewBox="0 0 32 32" fill="none" xmlns="http://www.w3.org/2000/svg">
<g clip-path="url(#clip0_1_4756)">
<path d="M14.6541 0.6682L0.668824 14.642C-0.0830488 15.3933 -0.0830488 16.6067 0.668824 17.3579L14.6541 31.3317C15.406 32.083 16.6204 32.083 17.3723 31.3317L23.2361 25.4727C23.9095 24.7999 23.9095 23.7091 23.2361 23.0363C22.5627 22.3635 21.471 22.3635 20.7977 23.0363L16.3523 27.4779C16.1652 27.6649 15.8812 27.6649 15.694 27.4779L4.52577 16.3189C4.33863 16.1319 4.33863 15.8481 4.52577 15.6611L15.694 4.50202C15.8812 4.31503 16.1652 4.31503 16.3523 4.50202L20.7977 8.94369C21.471 9.61649 22.5627 9.61649 23.2361 8.94369C23.9095 8.27089 23.9095 7.18006 23.2361 6.50725L17.3729 0.648875C16.618 -0.0861221 15.4031 -0.0801718 14.6541 0.6682Z" fill="url(#paint0_linear_1_4756)"/>
<path d="M14.6541 0.6682L0.668824 14.642C-0.0830488 15.3933 -0.0830488 16.6067 0.668824 17.3579L14.6541 31.3317C15.406 32.083 16.6204 32.083 17.3723 31.3317L23.2361 25.4727C23.9095 24.7999 23.9095 23.7091 23.2361 23.0363C22.5627 22.3635 21.471 22.3635 20.7977 23.0363L16.3523 27.4779C16.1652 27.6649 15.8812 27.6649 15.694 27.4779L4.52577 16.3189C4.33863 16.1319 4.33863 15.8481 4.52577 15.6611L15.694 4.50202C16.16 4.10031 16.9203 3.28665 18.0368 3.09635C18.8665 2.95492 19.7737 3.2662 20.7582 4.03019C20.1 3.3725 18.9715 2.2454 17.3729 0.648875C16.618 -0.0861221 15.4031 -0.0801718 14.6541 0.6682Z" fill="url(#paint1_linear_1_4756)"/>
<path d="M24.5897 21.7366C25.2631 22.4095 26.3548 22.4095 27.0281 21.7366L31.3536 17.4148C32.1055 16.6635 32.1055 15.4501 31.3537 14.6989L26.9905 10.3548C26.3156 9.68281 25.2235 9.68377 24.5497 10.357C23.8764 11.0298 23.8764 12.1206 24.5497 12.7934L27.4966 15.7379C27.6838 15.9249 27.6838 16.2087 27.4966 16.3957L24.5897 19.3002C23.9163 19.973 23.9163 21.0638 24.5897 21.7366Z" fill="url(#paint2_linear_1_4756)"/>
<path d="M16.0831 19.8427C18.1685 19.8427 19.8591 18.1535 19.8591 16.0698C19.8591 13.9861 18.1685 12.2969 16.0831 12.2969C13.9976 12.2969 12.307 13.9861 12.307 16.0698C12.307 18.1535 13.9976 19.8427 16.0831 19.8427Z" fill="url(#paint3_linear_1_4756)"/>
</g>
<defs>
<linearGradient id="paint0_linear_1_4756" x1="14.7836" y1="0.102235" x2="28.0737" y2="8.21829" gradientUnits="userSpaceOnUse">
<stop stop-color="#4285EB"/>
<stop offset="1" stop-color="#2EC7FF"/>
</linearGradient>
<linearGradient id="paint1_linear_1_4756" x1="16.5661" y1="0.102234" x2="10.0021" y2="34.0272" gradientUnits="userSpaceOnUse">
<stop stop-color="#29CDFF"/>
<stop offset="0.378601" stop-color="#148EFF"/>
<stop offset="1" stop-color="#0A60FF"/>
</linearGradient>
<linearGradient id="paint2_linear_1_4756" x1="29.5313" y1="8.24394" x2="20.9904" y2="21.6012" gradientUnits="userSpaceOnUse">
<stop stop-color="#FA816E"/>
<stop offset="0.414726" stop-color="#F74A5C"/>
<stop offset="1" stop-color="#F51D2C"/>
</linearGradient>
<linearGradient id="paint3_linear_1_4756" x1="17.4521" y1="9.60372" x2="14.6103" y2="20.9714" gradientUnits="userSpaceOnUse">
<stop stop-color="#FA8E7D"/>
<stop offset="0.512635" stop-color="#F74A5C"/>
<stop offset="1" stop-color="#F51D2C"/>
</linearGradient>
<clipPath id="clip0_1_4756">
<rect width="32" height="32" fill="white"/>
</clipPath>
</defs>
</svg>
